HIERARCHY
ROOT pelvis
{
  OFFSET 0 100 0
  CHANNELS 6 Xposition Yposition Zposition Zrotation Xrotation Yrotation
  JOINT pelvis_right_femur
  {
    OFFSET -10.78128 -3.44521 -0.5502486
    CHANNELS 3 Zrotation Xrotation Yrotation
    JOINT right_femur_tibia
    {
      OFFSET -0.8047443 -44.0398 -0.1307829
      CHANNELS 3 Zrotation Xrotation Yrotation
      JOINT right_tibia_foot
      {
        OFFSET 3.006224 -47.83518 -5
        CHANNELS 3 Zrotation Xrotation Yrotation
        End Site
        {
          OFFSET 0 -5 15
        }
      }
    }
  }
  JOINT pelvis_left_femur
  {
    OFFSET 10.78128 -3.44521 -0.5502486
    CHANNELS 3 Zrotation Xrotation Yrotation
    JOINT left_femur_tibia
    {
      OFFSET 0.8047443 -44.0398 -0.1307829
      CHANNELS 3 Zrotation Xrotation Yrotation
      JOINT left_tibia_foot
      {
        OFFSET -4.370144 -48.10324 -4.275266
        CHANNELS 3 Zrotation Xrotation Yrotation
        End Site
        {
          OFFSET 0 -5 15
        }
      }
    }
  }
  JOINT pelvis_spine1
  {
    OFFSET 0 6.468898 -3.129235
    CHANNELS 3 Zrotation Xrotation Yrotation
    JOINT spine1
    {
      OFFSET 0 23.15396 4.99043
      CHANNELS 3 Zrotation Xrotation Yrotation
      JOINT spine2
      {
        OFFSET 0 20.79997 -5.064912
        CHANNELS 3 Zrotation Xrotation Yrotation
        JOINT neck
        {
          OFFSET 0 14.38658 9.616178
          CHANNELS 3 Zrotation Xrotation Yrotation
          End Site
          {
            OFFSET 0 20 0
          }
        }
      }
      JOINT right_manubrium
      {
        OFFSET -5.722621 16.35077 3.967754
        CHANNELS 3 Zrotation Xrotation Yrotation
        JOINT right_clavicle
        {
          OFFSET -13.16364 1.694482 -4.693211
          CHANNELS 3 Zrotation Xrotation Yrotation
          JOINT right_humerus
          {
            OFFSET -28.5034 -0.3100689 -2.792744
            CHANNELS 3 Zrotation Xrotation Yrotation
            JOINT right_radius
            {
              OFFSET -25.15693 0.02248979 -1.271978
              CHANNELS 3 Zrotation Xrotation Yrotation
              End Site
              {
                OFFSET -15 0 0
              }
            }
          }
        }
      }
      JOINT left_manubrium
      {
        OFFSET 5.722621 16.35077 3.967754
        CHANNELS 3 Zrotation Xrotation Yrotation
        JOINT left_clavicle
        {
          OFFSET 13.16364 1.694482 -4.693211
          CHANNELS 3 Zrotation Xrotation Yrotation
          JOINT left_humerus
          {
            OFFSET 29.39168 -1.063119 -2.237045
            CHANNELS 3 Zrotation Xrotation Yrotation
            JOINT left_radius
            {
              OFFSET 24.59957 -0.9528479 0.9047498
              CHANNELS 3 Zrotation Xrotation Yrotation
              End Site
              {
                OFFSET 15 -0 -0
              }
            }
          }
        }
      }
    }
  }
}
MOTION
Frames: 15
Frame Time: 0.0416666666667
1275.189 105.2433 2879.849 6.005842 -4.381388 45.48809 -0.01045602 -17.40787 2.834455 -0 37.4158 -0 2.161757 -3.499803 -8.768606 -5.135636 8.798254 -8.845928 -0 13.57582 -0 -4.895061 -17.67993 14.7149 -1.388185 1.138189 3.345752 -4.455661 8.389615 -0.7336399 3.897917 23.72065 5.56618 5.578737 -9.775186 7.22959 9.074011 -13.71996 9.083083 74.86311 45.29293 1.163862 -0 0 18.3547 -21.49025 18.40607 10.40126 8.227182 -14.30319 -1.204698 -87.14552 7.948227 10.64034 0 0 -2.646077 17.18843 20.99919 -11.29123
1279.413 104.3185 2883.79 5.683248 -3.941083 46.3286 -0.05116899 -21.28363 2.158303 -0 28.60236 -0 1.920569 -4.359183 -8.988772 -5.007453 11.94903 -8.731159 -0 12.9723 -0 -5.355606 -19.04218 13.9182 -1.296531 1.155904 3.079997 -4.11273 8.11565 -1.140155 3.996838 23.53365 5.522158 5.403034 -10.08061 7.422345 9.049171 -13.34443 8.999451 75.24591 45.4668 0.219687 -0 0 17.7448 -20.45387 19.01067 9.725244 8.3334 -14.26726 -0.9429866 -86.29446 8.501347 9.125112 0 0 -5.271091 17.31839 20.95179 -11.619
1283.803 103.0851 2888.014 5.430132 -3.506785 47.02347 0.07435963 -23.89863 1.741622 -0 21.14623 -0 1.882383 -4.771795 -9.218379 -4.934475 14.79362 -8.515064 -0 13.9738 -0 -5.944596 -19.87026 13.25796 -1.247466 1.122569 2.860063 -3.764856 7.798121 -1.496715 4.067082 23.36641 5.509235 5.21535 -10.40757 7.638308 8.968145 -13.05929 8.903799 75.51979 45.62535 -0.5182456 -0 0 17.22708 -19.48982 19.49635 9.1622 8.403313 -14.22485 -0.6558021 -85.55228 9.039264 7.866302 0 0 -7.605237 17.42323 20.86258 -11.87099
1288.411 101.8081 2892.591 5.332135 -3.291546 47.59438 0.4815635 -25.07012 1.766249 -0 16.0743 -0 1.913725 -4.829314 -9.519054 -4.820578 17.28717 -8.281996 -0 16.85781 -0 -6.7535 -19.87177 12.82636 -1.235034 1.065914 2.700417 -3.450449 7.499399 -1.779128 4.111407 23.23201 5.515487 5.034818 -10.72746 7.851198 8.86497 -12.8753 8.821847 75.6877 45.76537 -1.027874 -0 0 16.83358 -18.67434 19.83745 8.73682 8.425179 -14.1714 -0.3822152 -84.98356 9.505723 6.957267 0 0 -9.416616 17.4999 20.75015 -12.03936
1293.236 100.7727 2897.545 5.475039 -3.473835 48.0362 1.22325 -24.58824 2.296909 -0 13.9165 -0 1.825358 -4.785359 -9.876743 -4.572152 19.20153 -8.123593 -0 21.74127 -0 -7.812381 -18.85055 12.69914 -1.24858 1.016564 2.60913 -3.207921 7.285215 -1.967252 4.133099 23.14926 5.526509 4.882676 -11.00529 8.028505 8.771324 -12.79209 8.776631 75.77753 45.85447 -1.317732 -0 0 16.57686 -18.09141 20.01197 8.470993 8.392904 -14.10746 -0.1660175 -84.65208 9.857721 6.46689 0 0 -10.48479 17.52993 20.64414 -12.10651
1298.211 100.232 2902.809 5.88923 -4.10885 48.30731 2.231283 -22.36763 3.228257 -0 14.53337 -0 1.45254 -4.977763 -10.20049 -4.160683 20.08932 -8.094207 -0 28.39743 -0 -8.994256 -16.84363 12.95794 -1.277177 1.000226 2.586371 -3.067231 7.20594 -2.047667 4.134992 23.14063 5.528602 4.77598 -11.20619 8.139714 8.706371 -12.79793 8.78161 75.83309 45.84049 -1.418162 -0 0 16.44481 -17.81616 20.00213 8.382382 8.30587 -14.03804 -0.04363839 -84.60484 10.07625 6.423286 0 0 -10.64458 17.48191 20.57725 -12.0458
1303.208 100.3284 2908.218 6.508298 -5.05843 48.3428 3.292089 -18.65509 4.290141 -0 16.93347 -0 0.7774905 -5.675699 -10.3475 -3.673619 19.38017 -8.141029 -0 36.1237 -0 -10.00086 -14.21978 13.64362 -1.31664 1.028739 2.625047 -3.036242 7.277815 -2.018474 4.117034 23.22561 5.514943 4.719478 -11.31761 8.169725 8.662384 -12.87862 8.83723 75.90209 45.66646 -1.36925 -0 0 16.40046 -17.88976 19.78973 8.483346 8.165218 -13.97139 -0.03140265 -84.85626 10.17935 6.810737 0 0 -9.840193 17.32176 20.56471 -11.82638
1308.081 101.0286 2913.57 7.189416 -6.012023 48.09359 4.115919 -14.07567 5.189194 -0 19.51174 -0 0.038743 -6.877282 -10.19017 -3.282391 16.66995 -8.089147 -0 43.8665 -0 -10.49048 -11.59311 14.68969 -1.373147 1.093706 2.713519 -3.091168 7.472845 -1.89335 4.075013 23.41038 5.490929 4.701003 -11.37002 8.129815 8.59884 -13.02875 8.93144 76.02006 45.28892 -1.207987 -0 0 16.39426 -18.29508 19.35798 8.776141 7.972194 -13.91577 -0.11706 -85.37951 10.22594 7.577571 0 0 -8.171092 17.0281 20.58751 -11.42549
1312.752 102.1356 2918.722 7.78804 -6.651051 47.56977 4.485627 -9.332758 5.793205 -0 20.87249 -0 -0.3618468 -8.250528 -9.675055 -3.075181 12.00507 -7.770093 -0 50.48753 -0 -10.317 -9.532984 15.94439 -1.457508 1.168627 2.839949 -3.186503 7.727323 -1.697458 4.003986 23.68013 5.471852 4.697035 -11.42378 8.053756 8.461048 -13.25362 9.042832 76.1892 44.69897 -0.9513161 -0 0 16.39444 -18.95557 18.71145 9.245332 7.733509 -13.87272 -0.262177 -86.11287 10.2916 8.648806 0 0 -5.88469 16.60524 20.603 -10.84667
1317.232 103.3635 2923.651 8.200049 -6.857539 46.84483 4.411595 -4.791701 6.140344 -0 20.55631 -0 -0.1974852 -9.417818 -8.842003 -2.912107 5.89274 -7.175459 -0 54.78873 -0 -9.701226 -8.328884 17.26802 -1.574538 1.220769 2.997107 -3.284145 7.96987 -1.453391 3.903865 24.00159 5.473502 4.688225 -11.52303 7.977378 8.215458 -13.56072 9.146355 76.36577 43.93748 -0.5811357 -0 0 16.41754 -19.77179 17.89549 9.859088 7.468743 -13.83369 -0.4196452 -86.98201 10.41985 9.944627 0 0 -3.288192 16.08753 20.57728 -10.13204
1321.579 104.4102 2928.396 8.360441 -6.773242 46.01132 4.154807 -0.4322214 6.301348 -0 18.99913 -0 0.3862031 -10.34719 -7.835488 -2.525338 -0.8838314 -6.423109 -0 55.60726 -0 -9.077913 -7.967779 18.58629 -1.719875 1.222937 3.184511 -3.373518 8.148131 -1.169606 3.780254 24.33549 5.505723 4.670548 -11.66587 7.921332 7.8678 -13.95247 9.22007 76.47315 43.08845 -0.04764129 -0 0 16.52671 -20.66636 16.98604 10.58275 7.207751 -13.78555 -0.5533959 -87.92491 10.59325 11.40256 0 0 -0.6340436 15.53158 20.50496 -9.353944
1325.86 105.0248 2932.993 8.242135 -6.625535 45.13344 4.000189 3.822858 6.305984 -0 16.98873 -0 1.076758 -11.35832 -6.827445 -1.776084 -7.514344 -5.63166 -0 52.50313 -0 -8.729371 -8.20452 19.83704 -1.885288 1.156537 3.405095 -3.464859 8.233921 -0.843206 3.640605 24.64834 5.573081 4.652165 -11.81571 7.89122 7.452125 -14.42408 9.2483 76.43151 42.25332 0.7057583 -0 0 16.79687 -21.59494 16.06255 11.3883 6.979962 -13.71891 -0.643351 -88.8989 10.7508 12.98156 -0 0 1.925023 15.00086 20.40348 -8.593011
1330.141 105.0801 2937.455 7.83343 -6.487925 44.23661 4.002042 7.870508 6.162928 -0 15.20081 -0 1.675393 -12.72288 -5.86131 -0.7771579 -13.42803 -4.898355 -0 46.24913 -0 -8.651102 -8.674795 20.8746 -2.062309 1.011004 3.65811 -3.572376 8.216308 -0.4724351 3.491681 24.91561 5.676906 4.64556 -11.92432 7.88427 7.014657 -14.95877 9.221512 76.18391 41.5287 1.708117 -0 0 17.2766 -22.52792 15.19595 12.24793 6.808411 -13.63463 -0.6816575 -89.86623 10.82176 14.63653 -0 0 4.296637 14.55409 20.29941 -7.923436
1334.502 104.6026 2941.812 7.144787 -6.250835 43.33532 3.992849 11.47558 5.908595 -0 14.09025 -0 2.164096 -14.32274 -4.855801 0.1957017 -18.33151 -4.319437 -0 38.43747 -0 -8.686775 -9.042935 21.494 -2.240499 0.7879252 3.93268 -3.704643 8.101471 -0.06849094 3.340216 25.11995 5.814353 4.664048 -11.94555 7.891117 6.608065 -15.5205 9.138515 75.71631 40.99344 2.92753 -0 0 17.96158 -23.43138 14.45044 13.11905 6.709024 -13.5488 -0.6738002 -90.77609 10.74868 16.28635 -0 0 6.394932 14.23917 20.2187 -7.406486
1339.045 103.7471 2946.127 6.270289 -5.779683 42.46603 3.745698 14.42935 5.627711 -0 14.01483 -0 2.631263 -15.64886 -3.753833 0.8325649 -22.05895 -4.002465 -0 30.82358 -0 -8.68664 -9.136954 21.57595 -2.404762 0.5086657 4.20647 -3.863036 7.92015 0.339667 3.194614 25.25056 5.975388 4.72048 -11.84492 7.894611 6.289439 -16.0533 9.011995 75.07103 40.69789 4.253075 -0 0 18.78427 -24.26104 13.88152 13.93556 6.688507 -13.49198 -0.6431142 -91.56169 10.50054 17.80692 -0 0 8.126116 14.08618 20.17929 -7.081735
